<svg width="24" height="24" viewBox="0 0 24 24" fill="none" xmlns="http://www.w3.org/2000/svg">
<path d="M21.1691 1.79764C20.7401 1.79764 20.3372 1.79764 19.9343 1.79764C18.1875 1.72553 16.4428 1.98408 14.7911 2.5598C13.1155 3.06148 11.5484 3.87451 10.1712 4.95664C8.57479 6.20752 6.75937 7.14705 4.81876 7.7267C3.3013 8.25358 1.71435 8.55116 0.109863 8.60975C0.169542 7.72637 0.290169 6.84821 0.470879 5.98163C1.68135 5.88864 2.87513 5.64137 4.02349 5.24574C5.70504 4.75574 7.27955 3.95149 8.66436 2.87517C10.2561 1.62606 12.066 0.686597 14.0011 0.105124L14.3412 0C17.5118 0.147175 19.6936 0.651775 21.1691 1.79764Z" fill="#4797F6"/>
<path d="M23.7276 7.16433C22.969 7.22741 22.3149 7.22213 21.6348 7.21688C19.8961 7.13792 18.1583 7.38936 16.5125 7.95802C14.8369 8.45707 13.2696 9.26838 11.8926 10.3496C10.3048 11.5971 8.5007 12.5381 6.57152 13.1249C4.6481 13.7888 2.61791 14.0847 0.585998 13.9975H0.0366245C0.0366245 13.3667 0 12.6992 0 11.9896V11.4166H0.606925C2.35545 11.4892 4.10196 11.2306 5.75532 10.6545C7.43185 10.155 8.99932 9.3418 10.3753 8.25762C11.9734 7.01064 13.7884 6.07309 15.7277 5.49284C17.6426 4.82987 19.6631 4.52868 21.6871 4.60454C22.158 4.60454 22.6236 4.60454 23.1207 4.60454C23.4115 5.43411 23.6149 6.29207 23.7276 7.16433Z" fill="#4797F6"/>
<path d="M23.9999 12V12.5887H23.393C21.6445 12.5162 19.898 12.7747 18.2446 13.3509C16.5676 13.8492 14.9999 14.6625 13.6246 15.7477C12.0256 16.9975 10.2087 17.9369 8.26693 18.5178C6.35392 19.1809 4.33511 19.4821 2.31281 19.4061C1.84192 19.4061 1.38149 19.4061 0.87921 19.4061C0.59655 18.5808 0.400159 17.7282 0.293213 16.8621C1.05187 16.799 1.71112 16.8042 2.3599 16.8095C4.10684 16.8844 5.85204 16.6258 7.50307 16.0474C9.17822 15.547 10.7452 14.7358 12.123 13.6558C13.7139 12.4071 15.5217 11.466 17.4545 10.8804C19.369 10.2163 21.3901 9.91681 23.4139 9.99739H23.9371C23.9894 10.6281 23.9999 11.2957 23.9999 12Z" fill="#4797F6"/>
<path d="M23.8846 15.3902C23.8249 16.2736 23.7043 17.1517 23.5236 18.0183C22.3142 18.1028 21.1205 18.3412 19.971 18.7279C18.2953 19.2296 16.7282 20.0426 15.351 21.1248C13.753 22.3762 11.9358 23.3158 9.99334 23.8948L9.66371 24C6.49305 23.8528 4.30603 23.3482 2.83057 22.197C3.2596 22.197 3.66247 22.197 4.06012 22.197C5.80132 22.2686 7.54047 22.0119 9.18759 21.4402C10.8632 20.9385 12.4303 20.1254 13.8075 19.0433C15.4115 17.7921 17.2338 16.8527 19.1809 16.2732C20.6967 15.7469 22.2818 15.4493 23.8846 15.3902Z" fill="#4797F6"/>
</svg>
